# xmcd
#
# Track frame offsets: 
#        150
#        13990
#        25869
#        43356
#        56161
#        69325
#        80005
#        95594
#        106615
#        116717
#
# Disc length: 1792 seconds
#
# Revision: 0
# Processed by: cddbd v1.5.2PL0 Copyright (c) Steve Scherf et al.
# Submitted via: ExactAudioCopyFreeDBPlugin 1.0
#
DISCID=8606fe0a
DTITLE=Don Williams - Best of Don Williams
DYEAR=1999
DGENRE=Country
TTITLE0=You're My Best Friend
TTITLE1=Tulsa Time
TTITLE2=I Believe In You
TTITLE3=Amanda
TTITLE4=Where Do I Go From Here
TTITLE5=Always Something There To Remind Me
TTITLE6=Tears
TTITLE7=Spend Some Time With Me
TTITLE8=Take My Hand For A While
TTITLE9=Good Ole Boys Like Me
EXTD=Cat: 40832 Bar: 9316797408327
EXTT0=
EXTT1=
EXTT2=
EXTT3=
EXTT4=
EXTT5=
EXTT6=
EXTT7=
EXTT8=
EXTT9=
PLAYORDER=
